<svg xmlns="http://www.w3.org/2000/svg" xmlns:xlink="http://www.w3.org/1999/xlink" width="200" height="200" class="icon" p-id="7944" t="1678720065678" version="1.1" viewBox="0 0 1024 1024"><path fill="#1296db" d="M728.615385 315.076923h-472.615385c-19.692308 0-39.384615-15.753846-39.384615-39.384615 0-19.692308 15.753846-39.384615 39.384615-39.384616h472.615385c23.630769 0 39.384615 15.753846 39.384615 39.384616s-19.692308 39.384615-39.384615 39.384615zM555.323077 555.323077H256c-19.692308 0-39.384615-15.753846-39.384615-39.384615s15.753846-39.384615 39.384615-39.384616h299.323077c19.692308 0 39.384615 15.753846 39.384615 39.384616 0 19.692308-19.692308 39.384615-39.384615 39.384615z" class="selected" data-spm-anchor-id="a313x.7781069.0.i16" p-id="7945"/><path fill="#d81e06" d="M984.615385 610.461538c-11.815385 0-19.692308 3.938462-27.569231 11.815385l-334.769231 334.769231c-15.753846 15.753846-15.753846 39.384615 0 55.138461 7.876923 7.876923 19.692308 11.815385 27.569231 11.815385s19.692308-3.938462 27.569231-11.815385l334.76923-334.76923c15.753846-15.753846 15.753846-39.384615 0-55.138462-7.876923-7.876923-19.692308-11.815385-27.56923-11.815385z" data-spm-anchor-id="a313x.7781069.0.i13" p-id="7946"/><path fill="#1296db" d="M78.769231 827.076923V196.923077c0-66.953846 51.2-118.153846 118.153846-118.153846h630.153846c66.953846 0 118.153846 51.2 118.153846 118.153846v263.876923c0 23.630769 15.753846 39.384615 39.384616 39.384615s39.384615-15.753846 39.384615-39.384615V157.538462c0-86.646154-70.892308-157.538462-157.538462-157.538462H157.538462C70.892308 0 0 70.892308 0 157.538462v708.923076c0 86.646154 70.892308 157.538462 157.538462 157.538462h145.723076c23.630769 0 39.384615-15.753846 39.384616-39.384615s-15.753846-39.384615-39.384616-39.384616H196.923077c-66.953846 0-118.153846-51.2-118.153846-118.153846z" class="selected" data-spm-anchor-id="a313x.7781069.0.i15" p-id="7947"/><path fill="#d81e06" d="M649.846154 610.461538c-11.815385 0-19.692308 3.938462-27.569231 11.815385-15.753846 15.753846-15.753846 39.384615 0 55.138462l334.769231 334.76923c7.876923 7.876923 19.692308 11.815385 27.569231 11.815385s19.692308-3.938462 27.56923-11.815385c15.753846-15.753846 15.753846-39.384615 0-55.138461l-334.76923-334.769231c-7.876923-7.876923-19.692308-11.815385-27.569231-11.815385z" data-spm-anchor-id="a313x.7781069.0.i14" p-id="7948"/></svg>