<?xml version="1.0" standalone="no"?><!DOCTYPE svg PUBLIC "-//W3C//DTD SVG 1.1//EN" "http://www.w3.org/Graphics/SVG/1.1/DTD/svg11.dtd"><svg t="1678719900013" class="icon" viewBox="0 0 1024 1024" version="1.1" xmlns="http://www.w3.org/2000/svg" p-id="5445" xmlns:xlink="http://www.w3.org/1999/xlink" width="200" height="200"><path d="M558.3 513l-7.4 3.4 5.4-5.4z" fill="#d81e06" p-id="5446"></path><path d="M639 254c0 65.5-33.1 123.3-83.6 157.4-17.6 11.9-37.2 20.9-58.3 26.4-15.4 4-31.5 6.1-48.1 6.1-18.1 0-35.6-2.5-52.1-7.2-20.9-6-40.4-15.4-57.7-27.7-48.5-34.3-80.2-91-80.2-155 0-105 85-190 190-190s190 85 190 190z" fill="#d81e06" p-id="5447"></path><path d="M558.3 513l-7.4 3.4 5.4-5.4zM858.5 813.2c-12.6 17.4-27.9 32.7-45.3 45.3L535.5 580.8c12.6-17.4 27.9-32.7 45.3-45.3l277.7 277.7z" fill="#d81e06" p-id="5448"></path><path d="M556.3 511l-5.4 5.4 7.4-3.3-2-2.1z" fill="#d81e06" p-id="5449"></path><path d="M696.9 434c-42.6 0-82.8 10.2-118.5 28.3l-23.1-50.8c-17.6 11.9-37.2 20.9-58.3 26.4l27.5 60.6c-41.8 36.3-72 85.6-84.4 141.5H301.9l95-203.2c-20.9-6-40.4-15.4-57.7-27.7L231.3 640H64v320h612v-0.8c6.9 0.5 13.9 0.8 20.9 0.8 70.3 0 136.3-27.4 186-77 49.7-49.7 77.1-115.7 77.1-186 0-145-118-263-263.1-263z m-140.6 77l2 2-7.4 3.3 5.4-5.3zM128 896V704h306.1c1.8 67.6 28.9 131 76.9 179 4.5 4.5 9.2 8.9 14 13H128z m568.9 0C587.3 896 498 806.7 498 697c0-43.3 13.9-83.5 37.5-116.2 12.6-17.4 27.9-32.7 45.3-45.3 32.7-23.6 72.8-37.5 116.1-37.5C806.7 498 896 587.3 896 697c0 43.3-13.9 83.5-37.5 116.2-12.6 17.4-27.9 32.7-45.3 45.3-32.7 23.6-72.9 37.5-116.3 37.5z" fill="#d81e06" p-id="5450"></path></svg>