<svg xmlns="http://www.w3.org/2000/svg" xmlns:xlink="http://www.w3.org/1999/xlink" width="32" height="32" class="icon" p-id="2770" t="1678801574356" version="1.1" viewBox="0 0 1024 1024"><path fill="#1296db" d="M512 640.64a42.666667 42.666667 0 0 0 42.666667-42.666667v-341.333333h130.986666a21.333333 21.333333 0 0 0 14.250667-5.461333l2.688-2.901334a21.333333 21.333333 0 0 0-4.010667-29.909333l-165.717333-126.464a32 32 0 0 0-38.912 0.042667L329.472 218.453333a21.333333 21.333333 0 0 0 12.970667 38.229334H469.333333v341.333333a42.666667 42.666667 0 0 0 42.666667 42.666667z m229.674667-298.368a42.666667 42.666667 0 0 0 4.992 85.034667H853.333333v426.666666H170.666667v-426.666666h106.666666a42.666667 42.666667 0 0 0 0-85.333334H170.666667a85.333333 85.333333 0 0 0-85.333334 85.333334v426.666666a85.333333 85.333333 0 0 0 85.333334 85.333334h682.666666a85.333333 85.333333 0 0 0 85.333334-85.333334v-426.666666a85.333333 85.333333 0 0 0-85.333334-85.333334h-106.666666z" data-spm-anchor-id="a313x.7781069.0.i0" p-id="2771"/></svg>