<svg xmlns="http://www.w3.org/2000/svg" xmlns:xlink="http://www.w3.org/1999/xlink" width="32" height="32" class="icon" p-id="14217" t="1678794037353" version="1.1" viewBox="0 0 1024 1024"><path fill="#1296db" d="M696.9 434c-42.6 0-82.9 10.2-118.5 28.3l-23.1-50.8c-17.6 11.9-37.2 20.9-58.3 26.4l27.5 60.6c-41.8 36.3-72 85.6-84.4 141.5H301.9l95-203.2c-20.9-6-40.4-15.4-57.7-27.7L231.3 640H64v320h612v-0.8c6.9 0.5 13.9 0.8 20.9 0.8 70.3 0 136.3-27.4 186-77 49.7-49.7 77.1-115.7 77.1-186 0-145-118-263-263.1-263zM128 896V704h306.1c1.8 67.6 28.9 131 76.9 179 4.5 4.5 9.2 8.9 14 13H128z m568.9 0C587.3 896 498 806.7 498 697s89.3-199 198.9-199C806.7 498 896 587.3 896 697s-89.3 199-199.1 199z" data-spm-anchor-id="a313x.7781069.0.i1" p-id="14218"/><path fill="#1296db" d="M639 254c0 65.5-33.1 123.3-83.6 157.4-17.6 11.9-37.2 20.9-58.3 26.4-15.4 4-31.5 6.1-48.1 6.1-18.1 0-35.5-2.5-52.1-7.2-20.9-6-40.4-15.4-57.7-27.7-48.5-34.3-80.2-91-80.2-155 0-105 85-190 190-190s190 85 190 190z" data-spm-anchor-id="a313x.7781069.0.i2" p-id="14219"/><path fill="#1afa29" d="M662.9 807.5l-7.1-7-100.5-100.4 45.2-45.3 62.3 62.3 130.7-130.6 45.2 45.3z" class="selected" data-spm-anchor-id="a313x.7781069.0.i0" p-id="14220"/></svg>